<svg width="158" height="120" viewBox="0 0 158 120" fill="none" xmlns="http://www.w3.org/2000/svg">
<path d="M50.8747 24.8216C57.9115 20.9517 63.2314 16.8094 67.8397 13.2211C68.2188 12.9259 68.5931 12.6345 68.9631 12.3473C73.8857 8.52615 77.9289 5.56023 82.6916 3.94192C92.2728 0.74914 105.504 2.81155 117.323 10.645C129.055 18.4214 139.445 31.8907 147.318 53.4458C151.243 64.2559 154.502 76.9585 155.282 88.1786C155.672 93.7886 155.434 98.9257 154.41 103.228C153.387 107.528 151.619 110.837 149.068 113.032C146.494 115.236 142.846 116.561 138.145 117.145C133.45 117.729 127.92 117.548 121.798 116.926C115.685 116.306 109.107 115.261 102.317 114.165C101.969 114.109 101.621 114.052 101.272 113.996C94.8392 112.956 88.2398 111.889 81.8105 111.142C75.024 110.341 68.4487 109.901 62.2133 109.525C61.2698 109.469 60.335 109.413 59.4088 109.359C54.1895 109.05 49.2445 108.758 44.5683 108.3C33.5108 107.219 24.4572 105.245 17.6348 100.363L17.6275 100.358C10.7885 95.501 5.89598 87.5228 3.732 78.856C1.5662 70.1819 2.20852 61.1296 6.02468 54.1639C9.85042 47.2041 17.0711 41.9456 25.542 37.3376C29.7491 35.0492 34.1653 32.9714 38.511 30.9313L38.7129 30.8365C42.9596 28.843 47.1535 26.8743 50.8747 24.8216ZM50.8747 24.8216C50.8742 24.8218 50.8737 24.8221 50.8732 24.8224L49.6685 22.6318L50.8761 24.8208C50.8756 24.821 50.8752 24.8213 50.8747 24.8216Z" fill="white" stroke="#EAEEF9" stroke-width="5"/>
<g clip-path="url(#clip0)">
<path d="M70.9141 80.7031C70.9141 67.4647 70.9258 65.8285 70.9141 65.8227C70.8906 65.8156 70.5297 65.8203 65.9301 65.8203C64.9809 65.8203 64.1617 65.0914 64.1195 64.1434C64.0738 63.1367 64.8777 62.3047 65.875 62.3047C70.5227 62.3047 70.8906 62.3094 70.9141 62.3023C70.9258 62.2965 70.9141 60.8053 70.9141 49.2969C70.9141 48.3266 71.7016 47.5391 72.6719 47.5391H92.4789C87.8406 42.7121 81.3566 39.8047 74.3125 39.8047C60.3555 39.8047 49 51.1074 49 65C49 78.8926 60.3555 90.1953 74.3125 90.1953C81.3531 90.1953 87.8383 87.2902 92.4789 82.4609H72.6719C71.7016 82.4609 70.9141 81.6734 70.9141 80.7031ZM64 54.8047H66.7574C67.7066 54.8047 68.5258 55.5336 68.568 56.4816C68.6137 57.4883 67.8098 58.3203 66.8125 58.3203H64.0551C63.1059 58.3203 62.2867 57.5914 62.2445 56.6434C62.1988 55.6367 63.0027 54.8047 64 54.8047ZM65.875 73.3203H60.3051C59.3559 73.3203 58.5367 72.5914 58.4945 71.6434C58.4488 70.6367 59.2527 69.8047 60.25 69.8047H65.8199C66.7691 69.8047 67.5883 70.5336 67.6305 71.4816C67.6762 72.4883 66.8723 73.3203 65.875 73.3203Z" fill="#9CD499"/>
<path d="M106.629 51.0547H76.6812L91.8747 62.7683L106.629 51.0547Z" fill="#75A1DE"/>
<path d="M92.9836 66.3765C92.3529 66.8772 91.4591 66.8867 90.8174 66.3918L74.4297 53.7578V77.1872C74.4297 78.158 75.2167 78.9451 76.1875 78.9451H107.242C108.213 78.9451 109 78.158 109 77.1872V53.6611L92.9836 66.3765Z" fill="#75A1DE"/>
</g>
<defs>
<clipPath id="clip0">
<rect width="60" height="60" fill="white" transform="translate(49 35)"/>
</clipPath>
</defs>
</svg>
