<svg width="64" height="32" viewBox="0 0 64 32" fill="none" xmlns="http://www.w3.org/2000/svg">
<path d="M39.2442 31.7595C47.7916 27.2304 55.9693 22.1229 63.8337 16.4921C64.0515 16.3362 64.0593 16.049 63.8337 15.8944C61.7384 14.4592 59.6165 13.0562 57.4983 11.6487C57.4782 11.6226 57.4535 11.6082 57.4224 11.5979C56.5218 10.9997 55.6326 10.3868 54.7288 9.79283C54.7293 9.67263 54.7313 9.55242 54.7318 9.43222C54.7328 9.22324 54.4177 9.225 54.4087 9.43222C54.4064 9.48101 54.4049 9.53004 54.4026 9.57858C53.3827 8.9094 52.3685 8.23142 51.3427 7.5708C51.3424 7.56074 51.3424 7.55068 51.3422 7.54087C51.3394 7.42041 51.2129 7.38948 51.1357 7.43852C48.2498 5.58364 45.3445 3.75994 42.3944 2.0142C42.3874 1.91587 42.3821 1.81729 42.3751 1.71896C42.3628 1.54721 42.0957 1.54444 42.105 1.71896C42.1073 1.76247 42.1103 1.80597 42.1128 1.84948C41.3589 1.40487 40.6052 0.95976 39.8462 0.524204C39.846 0.493021 39.8467 0.462089 39.8465 0.430906C39.8447 0.19628 39.548 0.128885 39.421 0.287063C39.2248 0.205082 39.0684 0.48422 39.258 0.607946C39.2716 0.616999 39.2857 0.625298 39.2993 0.634351C39.2877 0.681377 39.2764 0.728654 39.2651 0.77568C39.2538 0.822203 39.2729 0.857409 39.3015 0.881048C38.9527 3.32111 38.9726 5.86001 39.1127 8.31139C26.9498 5.78658 14.3247 4.63407 1.99239 3.28591C1.70118 3.25397 1.56161 3.61358 1.67829 3.83312C3.18816 6.6773 7.74916 12.4233 6.53806 15.6633C6.07157 16.9116 4.31552 18.5306 3.56562 19.5855C2.32056 21.3363 1.1688 23.1416 0.0514973 24.9754C-0.0951091 25.2161 0.0927418 25.5551 0.378669 25.5455C13.2394 25.1223 26.0631 24.2828 38.8791 23.1406C38.4908 25.8068 38.3321 28.7131 38.6834 31.375C38.6965 31.4735 38.7448 31.5422 38.8064 31.5895C38.8718 31.7461 39.0496 31.8626 39.2442 31.7595ZM39.2676 22.9359C39.2671 22.9216 39.2553 22.9136 39.2515 22.9007C39.3425 22.6767 39.2412 22.3794 38.9379 22.4078C30.8537 23.16 22.7517 23.7271 14.6449 24.1692C12.6879 24.2761 10.7302 24.3741 8.77217 24.4629C7.08703 24.5393 4.52273 25.1361 2.89694 24.7018C0.621089 24.0937 2.20287 22.8942 3.29453 21.2858C4.78427 19.0911 6.4 16.9938 8.08187 14.9435C8.19126 14.8103 8.22244 14.6528 8.13945 14.4967C7.1665 12.6589 6.19354 10.8209 5.22058 8.98308C5.01085 8.58676 2.79988 5.30701 3.03224 4.84732C3.25631 4.40371 4.05926 4.22944 5.14287 4.21134C5.00733 5.28312 5.08152 6.36975 5.25705 7.43223C5.27968 7.56979 5.51531 7.53911 5.50223 7.39904C5.40215 6.33605 5.39988 5.27633 5.37021 4.21184C6.13545 4.21385 7.02567 4.28703 7.9511 4.39818C8.07281 6.66146 8.19905 8.926 8.44097 11.18C8.46084 11.3641 8.744 11.3731 8.7357 11.18C8.63662 8.92499 8.42161 6.67655 8.20258 4.43037C9.12222 4.54655 10.064 4.69719 10.9505 4.84983C10.9439 4.8619 10.9306 4.86668 10.9281 4.88227C10.7151 6.2 10.5843 7.51472 10.6172 8.85106C10.6225 9.06456 10.9419 9.06456 10.9487 8.85106C10.9899 7.5376 11.0563 6.22641 11.2253 4.92251C11.2268 4.91094 11.2175 4.90516 11.2163 4.89484C12.1907 5.06509 13.0769 5.23358 13.7624 5.35781C13.5889 7.05502 13.6347 8.75575 13.8092 10.4502C13.8339 10.6888 14.202 10.6989 14.1897 10.4502C14.1072 8.77461 14.1263 7.10406 14.1585 5.42822C14.4276 5.475 14.6542 5.51171 14.8191 5.53259C15.4003 5.60577 15.981 5.68523 16.5619 5.76218C16.4286 6.58778 16.3708 7.43651 16.3255 8.26939C16.3154 8.45197 16.5822 8.44216 16.6039 8.26939C16.705 7.45311 16.7983 6.61972 16.8128 5.79513C17.6591 5.90829 18.5045 6.03327 19.3505 6.15247C19.2046 7.58287 19.1458 9.0125 19.2187 10.4509C19.2288 10.6499 19.5358 10.6521 19.5298 10.4509C19.487 9.0281 19.516 7.60978 19.6281 6.19171C20.5505 6.32197 21.4727 6.45802 22.3951 6.59205C22.338 7.97718 22.2289 9.35904 22.1386 10.7424C22.1285 10.8966 22.3873 10.9353 22.4119 10.7794C22.629 9.40355 22.6984 8.02647 22.7107 6.63782C23.6193 6.7701 24.5284 6.90288 25.4369 7.03566C25.3135 8.60889 25.2104 10.1844 25.1394 11.7606C25.1284 12.0041 25.4991 12.0005 25.5159 11.7606C25.6256 10.2035 25.7035 8.64309 25.7616 7.08293C26.467 7.18579 27.1729 7.28663 27.8785 7.38797C27.7422 10.9939 27.4369 14.5761 27.0298 18.1632C27.0051 18.3812 27.3809 18.434 27.4156 18.2155C27.9834 14.6496 28.2361 11.0525 28.2693 7.4443C28.8623 7.52905 29.4558 7.60475 30.0488 7.68773C30.0359 9.53004 29.9964 11.3754 30.0671 13.2164C30.0747 13.4136 30.3686 13.4146 30.3739 13.2164C30.4224 11.3874 30.3626 9.55544 30.3276 7.72596C31.0464 7.82604 31.7656 7.91733 32.4845 8.01364C32.4559 8.04206 32.43 8.07526 32.4237 8.12329C32.2368 9.57003 32.1782 11.0329 32.2778 12.4884C32.2942 12.7276 32.6548 12.7333 32.6543 12.4884C32.6523 11.0288 32.687 9.57933 32.7878 8.12329C32.7901 8.0906 32.7725 8.07425 32.7627 8.05086C33.3904 8.1346 34.0185 8.21231 34.6467 8.29278C34.5856 9.25467 34.525 10.2156 34.4936 11.1792C34.487 11.3776 34.7891 11.3754 34.8004 11.1792C34.8557 10.2284 34.8819 9.27781 34.908 8.32623C36.3789 8.51282 37.8503 8.69112 39.3237 8.83924C39.5455 8.95089 39.8681 8.85533 39.8548 8.53546C39.7489 6.0114 39.8475 3.50469 39.8445 0.985661C40.6095 1.48233 41.3802 1.97044 42.148 2.46308C42.2496 4.35091 42.3545 6.23773 42.4799 8.12429C42.4933 8.32522 42.8069 8.32774 42.795 8.12429C42.6894 6.29758 42.5637 4.47262 42.4354 2.64741C43.3015 3.20217 44.1661 3.75969 45.0329 4.31344C45.0291 4.32425 45.0191 4.32953 45.0181 4.34236C44.8363 6.47487 44.6653 8.60637 44.5287 10.7424C44.5161 10.9378 44.8159 10.935 44.8315 10.7424C45.0017 8.65013 45.138 6.5571 45.2643 4.46181C46.1437 5.0236 47.0203 5.58942 47.8995 6.15197C47.7896 8.117 47.7121 10.084 47.6644 12.0513C47.6583 12.2995 48.0381 12.298 48.0491 12.0513C48.1326 10.1529 48.1872 8.25305 48.2131 6.3529C49.0673 6.90011 49.9241 7.4433 50.7749 7.99604C50.8568 8.04935 50.9572 8.11122 51.0653 8.1771C51.0294 9.90549 51.011 11.6329 51.0339 13.3618C51.0369 13.5856 51.3787 13.5858 51.3817 13.3618C51.4043 11.6905 51.3875 10.0209 51.3548 8.35037C52.079 8.77813 53.1699 9.38871 54.3813 10.0891C54.3048 11.8092 54.2311 13.5323 54.244 15.2531C54.2457 15.489 54.595 15.4857 54.6081 15.2531C54.7022 13.6014 54.7157 11.9437 54.7245 10.2885C55.5164 10.7492 56.3491 11.2446 57.1598 11.7508C57.1591 11.7553 57.1548 11.7569 57.1543 11.7614C57.0278 13.2157 56.9036 14.6662 56.8399 16.125C56.8289 16.3785 57.2043 16.3694 57.2287 16.125C57.3658 14.7454 57.4478 13.3653 57.5257 11.9817C59.9914 13.5453 62.1561 15.1794 62.1659 16.206C62.1871 18.4199 53.3019 22.8001 51.4518 23.9512C47.4672 26.4302 43.4021 28.777 39.2842 31.0269C39.4542 28.365 39.3709 25.5938 39.2676 22.9359Z" fill="#77DC52"/>
</svg>
