<svg width="158" height="120" viewBox="0 0 158 120" fill="none" xmlns="http://www.w3.org/2000/svg">
<path d="M50.8747 24.8216C57.9115 20.9517 63.2314 16.8094 67.8397 13.2211C68.2188 12.9259 68.5931 12.6345 68.9631 12.3473C73.8857 8.52615 77.9289 5.56023 82.6916 3.94192C92.2728 0.74914 105.504 2.81155 117.323 10.645C129.055 18.4214 139.445 31.8907 147.318 53.4458C151.243 64.2559 154.502 76.9585 155.282 88.1786C155.672 93.7886 155.434 98.9257 154.41 103.228C153.387 107.528 151.619 110.837 149.068 113.032C146.494 115.236 142.846 116.561 138.145 117.145C133.45 117.729 127.92 117.548 121.798 116.926C115.685 116.306 109.107 115.261 102.317 114.165C101.969 114.109 101.621 114.052 101.272 113.996C94.8392 112.956 88.2398 111.889 81.8105 111.142C75.024 110.341 68.4487 109.901 62.2133 109.525C61.2698 109.469 60.335 109.413 59.4088 109.359C54.1895 109.05 49.2445 108.758 44.5683 108.3C33.5108 107.219 24.4572 105.245 17.6348 100.363L17.6275 100.358C10.7885 95.501 5.89598 87.5228 3.732 78.856C1.5662 70.1819 2.20852 61.1296 6.02468 54.1639C9.85042 47.2041 17.0711 41.9456 25.542 37.3376C29.7491 35.0492 34.1653 32.9714 38.511 30.9313L38.7129 30.8365C42.9596 28.843 47.1535 26.8743 50.8747 24.8216ZM50.8747 24.8216C50.8742 24.8218 50.8737 24.8221 50.8732 24.8224L49.6685 22.6318L50.8761 24.8208C50.8756 24.821 50.8752 24.8213 50.8747 24.8216Z" fill="white" stroke="#EAEEF9" stroke-width="5"/>
<g clip-path="url(#clip0)">
<path d="M84.3877 40.5469C82.4495 40.5469 80.8721 42.1243 80.8721 44.0625C80.8721 46.0007 82.4495 47.5781 84.3877 47.5781C86.3259 47.5781 87.9033 46.0007 87.9033 44.0625C87.9033 42.1243 86.3259 40.5469 84.3877 40.5469Z" fill="#75A1DE"/>
<path d="M84.3877 54.6094C80.51 54.6094 77.3564 57.7625 77.3564 61.6406V65.1562H91.4189V61.6406C91.4189 57.7625 88.2654 54.6094 84.3877 54.6094Z" fill="#75A1DE"/>
<path d="M84.3877 30C70.8177 30 59.7783 41.0394 59.7783 54.6094C59.7783 68.1789 70.8177 79.2183 84.3877 79.2183C97.9576 79.2183 108.997 68.1789 108.997 54.6094C108.997 41.0394 97.9576 30 84.3877 30V30ZM94.9346 66.9141C94.9346 67.8854 94.1481 68.6719 93.1768 68.6719H75.5986C74.6273 68.6719 73.8408 67.8854 73.8408 66.9141V61.6406C73.8408 55.8247 78.5718 51.0938 84.3877 51.0938C80.51 51.0938 77.3564 47.9402 77.3564 44.0625C77.3564 40.1848 80.51 37.0312 84.3877 37.0312C88.2654 37.0312 91.4189 40.1848 91.4189 44.0625C91.4189 47.9402 88.2654 51.0938 84.3877 51.0938C90.2036 51.0938 94.9346 55.8247 94.9346 61.6406V66.9141Z" fill="#75A1DE"/>
<path d="M61.1349 70.4053L50.5422 80.9975C48.4859 83.0542 48.4859 86.3982 50.5422 88.4544C52.6026 90.5148 55.9388 90.5148 57.9992 88.4544L68.5918 77.8622C65.6635 75.8664 63.1307 73.3336 61.1349 70.4053Z" fill="#75A1DE"/>
</g>
<defs>
<clipPath id="clip0">
<rect width="60" height="60" fill="white" transform="translate(49 30)"/>
</clipPath>
</defs>
</svg>
