<svg width="158" height="120" viewBox="0 0 158 120" fill="none" xmlns="http://www.w3.org/2000/svg">
<path d="M107.084 95.1784C100.047 99.0483 94.7276 103.191 90.1193 106.779C89.7402 107.074 89.3659 107.366 88.9959 107.653C84.0733 111.474 80.03 114.44 75.2674 116.058C65.6862 119.251 52.4545 117.188 40.6364 109.355C28.9043 101.579 18.5143 88.1093 10.6412 66.5542C6.71624 55.7441 3.45691 43.0415 2.67717 31.8214C2.2873 26.2114 2.52508 21.0743 3.54855 16.7723C4.57165 12.4718 6.33985 9.16253 8.89131 6.96796C11.4654 4.76397 15.1129 3.439 19.8142 2.85464C24.5093 2.27105 30.0394 2.45218 36.1614 3.07352C42.2736 3.69388 48.8524 4.73866 55.6418 5.83524C55.9895 5.8914 56.3378 5.94769 56.6865 6.00406C63.1198 7.04398 69.7192 8.11075 76.1485 8.85837C82.935 9.65915 89.5102 10.0992 95.7457 10.4745C96.6892 10.5313 97.624 10.5866 98.5502 10.6413C103.769 10.9498 108.714 11.2421 113.391 11.6996C124.448 12.7815 133.502 14.7549 140.324 19.6369L140.332 19.6421C147.171 24.499 152.063 32.4772 154.227 41.144C156.393 49.8181 155.75 58.8703 151.934 65.8361C148.109 72.7959 140.888 78.0544 132.417 82.6623C128.21 84.9508 123.794 87.0286 119.448 89.0687L119.246 89.1634C114.999 91.157 110.806 93.1257 107.084 95.1784ZM107.084 95.1784C107.085 95.1782 107.085 95.1779 107.086 95.1776L108.29 97.3682L107.083 95.1792C107.083 95.179 107.084 95.1787 107.084 95.1784Z" fill="white" stroke="#EAEEF9" stroke-width="5"/>
<path d="M57.5469 63.6328C54.639 63.6328 52.2734 65.9984 52.2734 68.9062C52.2734 71.8141 54.639 74.1797 57.5469 74.1797C60.4548 74.1797 62.8203 71.8141 62.8203 68.9062C62.8203 65.9984 60.4548 63.6328 57.5469 63.6328Z" fill="#E38540"/>
<path d="M61.0625 74.1797H57.5469H54.0312C50.1534 74.1797 47 77.3331 47 81.2109V88.2422C47 89.2138 47.7862 90 48.7578 90H66.3359C67.3075 90 68.0938 89.2138 68.0938 88.2422V81.2109C68.0938 77.3331 64.9404 74.1797 61.0625 74.1797Z" fill="#E38540"/>
<path d="M96.4531 63.6328C93.5452 63.6328 91.1797 65.9984 91.1797 68.9062C91.1797 71.8141 93.5452 74.1797 96.4531 74.1797C99.361 74.1797 101.727 71.8141 101.727 68.9062C101.727 65.9984 99.361 63.6328 96.4531 63.6328Z" fill="#E38540"/>
<path d="M99.9688 74.1797H96.4531H92.9375C89.0596 74.1797 85.9062 77.3331 85.9062 81.2109V88.2422C85.9062 89.2138 86.6925 90 87.6641 90H105.242C106.214 90 107 89.2138 107 88.2422V81.2109C107 77.3331 103.847 74.1797 99.9688 74.1797Z" fill="#E38540"/>
<path d="M77 30H62.9375C58.0835 30 54.1484 33.935 54.1484 38.7891V49.3359C54.1484 53.5812 57.1732 57.1311 61.1797 57.9482V63.3982C61.1797 64.9642 63.0731 65.7485 64.1805 64.6411L70.6966 58.125H77C81.854 58.125 85.7891 54.19 85.7891 49.3359V38.7891C85.7891 33.935 81.854 30 77 30ZM76.485 40.0318L69.4537 47.0631C68.7673 47.7495 67.6544 47.7495 66.968 47.0631L63.4524 43.5475C62.7658 42.8609 62.7658 41.7484 63.4524 41.0618C64.139 40.3752 65.2515 40.3752 65.9381 41.0618L68.2109 43.3346L73.9994 37.5462C74.686 36.8596 75.7985 36.8596 76.4851 37.5462C77.1717 38.2328 77.1717 39.3452 76.485 40.0318Z" fill="#E38540"/>
<path d="M91.0628 33.5156H88.0708C88.8389 35.1203 89.305 36.8947 89.305 38.7891V49.3359C89.305 53.3618 87.3334 56.9099 84.335 59.1562L89.8198 64.6411C90.9272 65.7485 92.8206 64.9642 92.8206 63.3982V57.9482C96.8271 57.131 99.8519 53.5811 99.8519 49.3359V42.3047C99.8519 37.4507 95.9168 33.5156 91.0628 33.5156Z" fill="#E38540"/>
</svg>
