<svg width="158" height="120" viewBox="0 0 158 120" fill="none" xmlns="http://www.w3.org/2000/svg">
<path d="M107.084 95.1784C100.047 99.0483 94.7276 103.191 90.1193 106.779C89.7402 107.074 89.3659 107.366 88.9959 107.653C84.0733 111.474 80.03 114.44 75.2674 116.058C65.6862 119.251 52.4545 117.188 40.6364 109.355C28.9043 101.579 18.5143 88.1093 10.6412 66.5542C6.71624 55.7441 3.45691 43.0415 2.67717 31.8214C2.2873 26.2114 2.52508 21.0743 3.54855 16.7723C4.57165 12.4718 6.33985 9.16253 8.89131 6.96796C11.4654 4.76397 15.1129 3.439 19.8142 2.85464C24.5093 2.27105 30.0394 2.45218 36.1614 3.07352C42.2736 3.69388 48.8524 4.73866 55.6418 5.83524C55.9895 5.8914 56.3378 5.94769 56.6865 6.00406C63.1198 7.04398 69.7192 8.11075 76.1485 8.85837C82.935 9.65915 89.5102 10.0992 95.7457 10.4745C96.6892 10.5313 97.624 10.5866 98.5502 10.6413C103.769 10.9498 108.714 11.2421 113.391 11.6996C124.448 12.7815 133.502 14.7549 140.324 19.6369L140.332 19.6421C147.171 24.499 152.063 32.4772 154.227 41.144C156.393 49.8181 155.75 58.8703 151.934 65.8361C148.109 72.7959 140.888 78.0544 132.417 82.6623C128.21 84.9508 123.794 87.0286 119.448 89.0687L119.246 89.1634C114.999 91.157 110.806 93.1257 107.084 95.1784ZM107.084 95.1784C107.085 95.1782 107.085 95.1779 107.086 95.1776L108.29 97.3682L107.083 95.1792C107.083 95.179 107.084 95.1787 107.084 95.1784Z" fill="white" stroke="#EAEEF9" stroke-width="5"/>
<path d="M101.427 54.4418H100.577V53.5769C100.577 40.5766 90.0006 30 77.0001 30C63.9996 30 53.4232 40.5766 53.4232 53.5772V54.442H52.5734C49.5845 54.442 47.1528 56.8737 47.1528 59.8626V67.791C47.1528 70.7799 49.5845 73.2116 52.5734 73.2116H55.5954C56.1702 73.2116 56.6629 72.8637 56.8766 72.3676C60.4552 79.4892 65.6624 84.1981 66.0069 84.5049C66.1927 84.6704 66.4276 84.7549 66.6639 84.7549C66.6653 84.7549 66.6667 84.7555 66.6687 84.7549C67.2141 84.7549 67.6563 84.3127 67.6563 83.7673C67.6563 83.6376 67.6315 83.514 67.586 83.4004C67.5606 83.3097 67.5163 83.1474 67.4596 82.9258C69.8944 85.9825 72.5075 87.7901 74.4911 88.8277C75.9569 89.5946 77.6088 90 79.2683 90C80.9277 90 82.58 89.5946 84.0458 88.8277C85.9399 87.8367 88.407 86.139 90.7452 83.3279C95.1665 81.717 98.5353 77.8978 99.5109 73.2116H101.427C104.416 73.2116 106.848 70.7799 106.848 67.791V59.8626C106.848 56.8735 104.416 54.4418 101.427 54.4418ZM57.9167 45.3443C61.112 37.9664 68.4615 32.7899 77.0001 32.7899C86.4122 32.7899 94.3786 39.0798 96.9289 47.6753C95.8165 46.6054 94.6007 45.993 93.5296 45.7743C92.771 43.6121 91.6536 42.271 91.4073 41.9925C90.9403 41.3645 86.5916 35.8614 77.6814 35.8614C74.6292 35.8614 71.3675 36.5231 67.9878 37.8285C65.5767 38.7595 61.2222 40.9374 57.9167 45.3443ZM83.1301 87.0775C81.9458 87.6972 80.6105 88.0247 79.2683 88.0247C77.9263 88.0247 76.5911 87.6972 75.4068 87.0775C72.9784 85.807 69.508 83.2604 66.7666 78.3437C66.7122 78.2463 66.662 78.1459 66.609 78.0474C66.2438 74.2812 66.5044 69.5105 69.4954 66.9995C71.8116 65.0552 75.7095 64.1499 79.4789 63.2744C84.1987 62.1782 89.0515 61.0489 91.7251 57.8538C92.5654 58.6409 93.2732 59.6427 93.5541 60.8932C94.5128 65.1598 93.2827 68.816 93.2651 68.8674C93.1315 69.2518 93.247 69.6787 93.5564 69.9432C93.7394 70.0994 93.9676 70.1798 94.1981 70.1798C94.3579 70.1798 94.5189 70.141 94.6659 70.0617C94.6763 70.0562 94.7005 70.0425 94.7309 70.0252C94.111 72.9192 93.1753 75.8244 91.7705 78.3437C91.3509 79.0961 90.9132 79.7866 90.4657 80.4319C89.1143 81.0293 87.6219 81.3635 86.052 81.3635H84.608C84.0396 79.8419 82.5758 78.7532 80.8583 78.7532H77.0442C74.8357 78.7532 73.0389 80.5499 73.0389 82.7584C73.0389 84.967 74.8357 86.7637 77.0442 86.7637H80.8583C82.5758 86.7637 84.0399 85.675 84.608 84.1534H86.052C86.4775 84.1534 86.8982 84.1333 87.3136 84.0954C85.8065 85.4954 84.339 86.4451 83.1301 87.0775ZM94.4157 77.474C95.6751 74.7039 96.49 71.6715 97.0098 68.7416V70.4055C97.0098 73.0975 96.0322 75.5643 94.4157 77.474Z" fill="#F39892"/>
</svg>
