<svg width="296" height="180" viewBox="0 0 296 180" fill="none" xmlns="http://www.w3.org/2000/svg">
<path d="M220.984 144.142H39.197C31.5383 144.142 25.3286 137.894 25.3286 130.189V122.843H234.853V130.189C234.853 137.894 228.643 144.142 220.984 144.142Z" fill="#678EC4"/>
<path d="M152.008 144.146H109.007V162.782H152.008V144.146Z" fill="#75A1DE"/>
<path d="M234.853 123.188H25.3289V12.8965C25.3289 5.77417 31.0665 0 38.1471 0H222.035C229.114 0 234.853 5.77417 234.853 12.8965V123.188Z" fill="#75A1DE"/>
<path d="M227.629 8.8623H33.8198V115.581H227.629V8.8623Z" fill="white"/>
<path d="M134.801 132.541C134.801 135.172 132.683 137.301 130.069 137.301C127.455 137.301 125.336 135.172 125.336 132.541C125.336 129.911 127.455 127.78 130.069 127.78C132.683 127.78 134.801 129.911 134.801 132.541Z" fill="white"/>
<path d="M170.418 169.011H89.8472C89.8472 165.566 92.6226 162.774 96.0464 162.774H164.219C167.643 162.774 170.418 165.566 170.418 169.011Z" fill="#678EC3"/>
<path d="M201.269 45.8571H133.334C132.363 45.8571 131.578 45.0651 131.578 44.0882V43.9183C131.578 42.9415 132.363 42.1494 133.334 42.1494H201.269C202.24 42.1494 203.029 42.9415 203.029 43.9183V44.0882C203.029 45.0651 202.24 45.8571 201.269 45.8571Z" fill="#E7F3FE"/>
<path d="M181.881 65.1882H133.334C132.363 65.1882 131.578 64.3961 131.578 63.4192V63.2509C131.578 62.274 132.363 61.4805 133.334 61.4805H181.881C182.854 61.4805 183.639 62.274 183.639 63.2509V63.4192C183.639 64.3961 182.854 65.1882 181.881 65.1882Z" fill="#E7F3FE"/>
<path d="M201.186 74.8542H133.334C132.363 74.8542 131.578 74.0621 131.578 73.0853V72.9169C131.578 71.9385 132.363 71.1465 133.334 71.1465H201.186C202.203 71.1465 203.029 71.9776 203.029 73.0011C203.029 74.0246 202.203 74.8542 201.186 74.8542Z" fill="#E7F3FE"/>
<path d="M151.114 84.5182H133.334C132.363 84.5182 131.578 83.7261 131.578 82.7508V82.5809C131.578 81.604 132.363 80.812 133.334 80.812H151.114C152.084 80.812 152.872 81.604 152.872 82.5809V82.7508C152.872 83.7261 152.084 84.5182 151.114 84.5182Z" fill="#E7F3FE"/>
<path d="M168.751 55.5226H133.334C132.363 55.5226 131.578 54.7306 131.578 53.7537V53.5839C131.578 52.607 132.363 51.8149 133.334 51.8149H168.751C169.723 51.8149 170.51 52.607 170.51 53.5839V53.7537C170.51 54.7306 169.723 55.5226 168.751 55.5226Z" fill="#E7F3FE"/>
<path d="M44.8721 83.9429H6.53535C2.92634 83.9429 0 86.8856 0 90.5166V173.419C0 177.05 2.92634 179.994 6.53535 179.994H44.8721C48.4811 179.994 51.406 177.05 51.406 173.419V90.5166C51.406 86.8856 48.4811 83.9429 44.8721 83.9429Z" fill="#75A1DE"/>
<path d="M24.5016 176.311C22.3162 176.311 20.5386 174.521 20.5386 172.321C20.5386 170.122 22.3162 168.333 24.5016 168.333C26.6885 168.333 28.4676 170.122 28.4676 172.321C28.4676 174.521 26.6885 176.311 24.5016 176.311Z" fill="white"/>
<path d="M47.0387 92.3765H3.77393V164.701H47.0387V92.3765Z" fill="white"/>
<path d="M24.7906 138.369H12.7894C11.8185 138.369 11.0312 137.577 11.0312 136.601V136.432C11.0312 135.455 11.8185 134.663 12.7894 134.663H24.7906C25.7616 134.663 26.5503 135.455 26.5503 136.432V136.601C26.5503 137.577 25.7616 138.369 24.7906 138.369Z" fill="#E7F3FE"/>
<path d="M24.7906 155.365H12.7894C11.8185 155.365 11.0312 154.573 11.0312 153.596V153.426C11.0312 152.451 11.8185 151.657 12.7894 151.657H24.7906C25.7616 151.657 26.5503 152.451 26.5503 153.426V153.596C26.5503 154.573 25.7616 155.365 24.7906 155.365Z" fill="#E7F3FE"/>
<path d="M39.1146 146.875H12.7894C11.8185 146.875 11.0312 146.085 11.0312 145.108V144.938C11.0312 143.961 11.8185 143.169 12.7894 143.169H39.1146C40.0856 143.169 40.8728 143.961 40.8728 144.938V145.108C40.8728 146.085 40.0856 146.875 39.1146 146.875Z" fill="#E7F3FE"/>
<path d="M287.723 58.332H219.033C214.462 58.332 210.756 62.0608 210.756 66.6612V171.671C210.756 176.27 214.462 180 219.033 180H287.723C292.294 180 296 176.27 296 171.671V66.6612C296 62.0608 292.294 58.332 287.723 58.332Z" fill="#75A1DE"/>
<path d="M252.137 175.323C249.369 175.323 247.116 173.056 247.116 170.271C247.116 167.485 249.369 165.22 252.137 165.22C254.906 165.22 257.159 167.485 257.159 170.271C257.159 173.056 254.906 175.323 252.137 175.323Z" fill="white"/>
<path d="M290.477 69.0015H215.546V160.617H290.477V69.0015Z" fill="white"/>
<path d="M240.481 141.729H228.479C227.508 141.729 226.723 140.936 226.723 139.96V139.79C226.723 138.814 227.508 138.021 228.479 138.021H240.481C241.453 138.021 242.239 138.814 242.239 139.79V139.96C242.239 140.936 241.453 141.729 240.481 141.729Z" fill="#E7F3FE"/>
<path d="M277.706 150.245H228.479C227.508 150.245 226.723 149.451 226.723 148.476V148.306C226.723 147.329 227.508 146.537 228.479 146.537H277.706C278.677 146.537 279.464 147.329 279.464 148.306V148.476C279.464 149.451 278.677 150.245 277.706 150.245Z" fill="#E7F3FE"/>
<g clip-path="url(#clip0)">
<path d="M94.765 45.3145H73.8635C71.7025 45.3145 69.8574 47.0832 69.8574 49.2574V57.2309C69.8574 59.4051 71.7025 61.1738 73.8635 61.1738H75.1699V65.1168C75.1699 65.6481 75.4875 66.1282 75.9762 66.3309C76.1381 66.399 76.3078 66.4311 76.4762 66.4311C76.8155 66.4311 77.1498 66.2976 77.3998 66.046L82.2425 61.1738H83.0079V59.8595C83.0079 56.2361 85.9382 53.288 89.5396 53.288H98.684V49.2574C98.684 47.0832 96.926 45.3145 94.765 45.3145ZM79.0889 51.886C78.3675 51.886 77.7826 51.2976 77.7826 50.5717C77.7826 49.8457 78.3675 49.2574 79.0889 49.2574C79.8104 49.2574 80.3952 49.8457 80.3952 50.5717C80.3952 51.2976 79.8104 51.886 79.0889 51.886ZM84.3143 51.886C83.5928 51.886 83.0079 51.2976 83.0079 50.5717C83.0079 49.8457 83.5928 49.2574 84.3143 49.2574C85.0357 49.2574 85.6206 49.8457 85.6206 50.5717C85.6206 51.2976 85.0357 51.886 84.3143 51.886ZM89.5396 51.886C88.8182 51.886 88.2333 51.2976 88.2333 50.5717C88.2333 49.8457 88.8182 49.2574 89.5396 49.2574C90.2611 49.2574 90.846 49.8457 90.846 50.5717C90.846 51.2976 90.2611 51.886 89.5396 51.886Z" fill="#9CD499"/>
<path d="M110.441 55.9165H89.5396C87.3786 55.9165 85.6206 57.6852 85.6206 59.8594V66.431H94.765C97.919 66.431 100.558 68.6924 101.164 71.6883H102.862L106.824 76.4732C107.078 76.7787 107.448 76.9455 107.828 76.9455C107.978 76.9455 108.128 76.9198 108.274 76.8672C108.79 76.6785 109.135 76.1844 109.135 75.6312V71.6883H110.441C112.602 71.6883 114.447 69.9195 114.447 67.7453V59.8594C114.447 57.6852 112.602 55.9165 110.441 55.9165ZM94.765 65.1167C94.0435 65.1167 93.4587 64.5282 93.4587 63.8024C93.4587 63.0764 94.0435 62.4881 94.765 62.4881C95.4864 62.4881 96.0713 63.0764 96.0713 63.8024C96.0713 64.5282 95.4864 65.1167 94.765 65.1167ZM99.9904 65.1167C99.2689 65.1167 98.684 64.5282 98.684 63.8024C98.684 63.0764 99.2689 62.4881 99.9904 62.4881C100.712 62.4881 101.297 63.0764 101.297 63.8024C101.297 64.5282 100.712 65.1167 99.9904 65.1167ZM105.216 65.1167C104.494 65.1167 103.909 64.5282 103.909 63.8024C103.909 63.0764 104.494 62.4881 105.216 62.4881C105.937 62.4881 106.522 63.0764 106.522 63.8024C106.522 64.5282 105.937 65.1167 105.216 65.1167Z" fill="#9CD499"/>
<path d="M94.765 69.0596H73.8635C71.7025 69.0596 69.8574 70.8283 69.8574 73.0025V80.8884C69.8574 83.0626 71.7025 84.8313 73.8635 84.8313H75.1699V88.8619C75.1699 89.3932 75.4875 89.8733 75.9762 90.0761C76.1381 90.1441 76.3078 90.1762 76.4762 90.1762C76.8155 90.1762 77.1498 90.0428 77.3998 89.7911L82.2425 84.8313H94.765C96.926 84.8313 98.684 83.0626 98.684 80.8884V73.0025C98.684 70.8283 96.926 69.0596 94.765 69.0596ZM79.0889 78.2598C78.3675 78.2598 77.7826 77.6713 77.7826 76.9454C77.7826 76.2194 78.3675 75.6311 79.0889 75.6311C79.8104 75.6311 80.3952 76.2194 80.3952 76.9454C80.3952 77.6713 79.8104 78.2598 79.0889 78.2598ZM84.3143 78.2598C83.5928 78.2598 83.0079 77.6713 83.0079 76.9454C83.0079 76.2194 83.5928 75.6311 84.3143 75.6311C85.0357 75.6311 85.6206 76.2194 85.6206 76.9454C85.6206 77.6713 85.0357 78.2598 84.3143 78.2598ZM89.5396 78.2598C88.8182 78.2598 88.2333 77.6713 88.2333 76.9454C88.2333 76.2194 88.8182 75.6311 89.5396 75.6311C90.2611 75.6311 90.846 76.2194 90.846 76.9454C90.846 77.6713 90.2611 78.2598 89.5396 78.2598Z" fill="#9CD499"/>
</g>
<g clip-path="url(#clip1)">
<path d="M29.2185 111.112H18.4194C17.3029 111.112 16.3496 112.026 16.3496 113.149V117.269C16.3496 118.392 17.3029 119.306 18.4194 119.306H19.0944V121.344C19.0944 121.618 19.2585 121.866 19.511 121.971C19.5946 122.006 19.6823 122.023 19.7693 122.023C19.9446 122.023 20.1173 121.954 20.2465 121.824L22.7486 119.306H23.144V118.627C23.144 116.755 24.658 115.232 26.5188 115.232H31.2434V113.149C31.2434 112.026 30.3351 111.112 29.2185 111.112ZM21.1192 114.508C20.7465 114.508 20.4443 114.204 20.4443 113.829C20.4443 113.453 20.7465 113.149 21.1192 113.149C21.492 113.149 21.7941 113.453 21.7941 113.829C21.7941 114.204 21.492 114.508 21.1192 114.508ZM23.819 114.508C23.4462 114.508 23.144 114.204 23.144 113.829C23.144 113.453 23.4462 113.149 23.819 113.149C24.1917 113.149 24.4939 113.453 24.4939 113.829C24.4939 114.204 24.1917 114.508 23.819 114.508ZM26.5188 114.508C26.146 114.508 25.8438 114.204 25.8438 113.829C25.8438 113.453 26.146 113.149 26.5188 113.149C26.8915 113.149 27.1937 113.453 27.1937 113.829C27.1937 114.204 26.8915 114.508 26.5188 114.508Z" fill="#E38540"/>
<path d="M37.3178 116.59H26.5187C25.4022 116.59 24.4939 117.504 24.4939 118.627V122.022H29.2185C30.8481 122.022 32.2113 123.191 32.5249 124.739H33.402L35.4492 127.211C35.5804 127.369 35.7715 127.455 35.9679 127.455C36.0451 127.455 36.1228 127.442 36.1979 127.414C36.4649 127.317 36.6429 127.062 36.6429 126.776V124.739H37.3178C38.4343 124.739 39.3876 123.825 39.3876 122.701V118.627C39.3876 117.504 38.4343 116.59 37.3178 116.59ZM29.2185 121.343C28.8457 121.343 28.5436 121.039 28.5436 120.664C28.5436 120.289 28.8457 119.985 29.2185 119.985C29.5912 119.985 29.8934 120.289 29.8934 120.664C29.8934 121.039 29.5912 121.343 29.2185 121.343ZM31.9183 121.343C31.5455 121.343 31.2433 121.039 31.2433 120.664C31.2433 120.289 31.5455 119.985 31.9183 119.985C32.291 119.985 32.5932 120.289 32.5932 120.664C32.5932 121.039 32.291 121.343 31.9183 121.343ZM34.618 121.343C34.2453 121.343 33.9431 121.039 33.9431 120.664C33.9431 120.289 34.2453 119.985 34.618 119.985C34.9908 119.985 35.293 120.289 35.293 120.664C35.293 121.039 34.9908 121.343 34.618 121.343Z" fill="#E38540"/>
<path d="M29.2185 123.381H18.4194C17.3029 123.381 16.3496 124.295 16.3496 125.418V129.492C16.3496 130.616 17.3029 131.53 18.4194 131.53H19.0944V133.612C19.0944 133.887 19.2585 134.135 19.511 134.239C19.5946 134.275 19.6823 134.291 19.7693 134.291C19.9446 134.291 20.1173 134.222 20.2465 134.092L22.7486 131.53H29.2185C30.3351 131.53 31.2434 130.616 31.2434 129.492V125.418C31.2434 124.295 30.3351 123.381 29.2185 123.381ZM21.1192 128.134C20.7465 128.134 20.4443 127.83 20.4443 127.455C20.4443 127.08 20.7465 126.776 21.1192 126.776C21.492 126.776 21.7941 127.08 21.7941 127.455C21.7941 127.83 21.492 128.134 21.1192 128.134ZM23.819 128.134C23.4462 128.134 23.144 127.83 23.144 127.455C23.144 127.08 23.4462 126.776 23.819 126.776C24.1917 126.776 24.4939 127.08 24.4939 127.455C24.4939 127.83 24.1917 128.134 23.819 128.134ZM26.5188 128.134C26.146 128.134 25.8438 127.83 25.8438 127.455C25.8438 127.08 26.146 126.776 26.5188 126.776C26.8915 126.776 27.1937 127.08 27.1937 127.455C27.1937 127.83 26.8915 128.134 26.5188 128.134Z" fill="#E38540"/>
</g>
<g clip-path="url(#clip2)">
<path d="M258.435 87.1855H236.14C233.835 87.1855 231.867 89.0722 231.867 91.3914V99.8964C231.867 102.216 233.835 104.102 236.14 104.102H237.533V108.308C237.533 108.875 237.872 109.387 238.393 109.603C238.566 109.676 238.747 109.71 238.927 109.71C239.289 109.71 239.645 109.568 239.912 109.299L245.077 104.102H245.894V102.7C245.894 98.8353 249.02 95.6906 252.861 95.6906H262.615V91.3914C262.615 89.0722 260.74 87.1855 258.435 87.1855ZM241.714 94.1952C240.944 94.1952 240.32 93.5675 240.32 92.7933C240.32 92.0189 240.944 91.3914 241.714 91.3914C242.483 91.3914 243.107 92.0189 243.107 92.7933C243.107 93.5675 242.483 94.1952 241.714 94.1952ZM247.287 94.1952C246.518 94.1952 245.894 93.5675 245.894 92.7933C245.894 92.0189 246.518 91.3914 247.287 91.3914C248.057 91.3914 248.681 92.0189 248.681 92.7933C248.681 93.5675 248.057 94.1952 247.287 94.1952ZM252.861 94.1952C252.092 94.1952 251.468 93.5675 251.468 92.7933C251.468 92.0189 252.092 91.3914 252.861 91.3914C253.631 91.3914 254.254 92.0189 254.254 92.7933C254.254 93.5675 253.631 94.1952 252.861 94.1952Z" fill="#F39892"/>
<path d="M275.156 98.4946H252.861C250.556 98.4946 248.681 100.381 248.681 102.7V109.71H258.435C261.799 109.71 264.614 112.122 265.261 115.318H267.072L271.298 120.422C271.569 120.748 271.964 120.926 272.369 120.926C272.528 120.926 272.689 120.898 272.844 120.842C273.395 120.641 273.763 120.114 273.763 119.524V115.318H275.156C277.461 115.318 279.429 113.431 279.429 111.112V102.7C279.429 100.381 277.461 98.4946 275.156 98.4946ZM258.435 108.308C257.665 108.308 257.041 107.68 257.041 106.906C257.041 106.132 257.665 105.504 258.435 105.504C259.204 105.504 259.828 106.132 259.828 106.906C259.828 107.68 259.204 108.308 258.435 108.308ZM264.009 108.308C263.239 108.308 262.615 107.68 262.615 106.906C262.615 106.132 263.239 105.504 264.009 105.504C264.778 105.504 265.402 106.132 265.402 106.906C265.402 107.68 264.778 108.308 264.009 108.308ZM269.582 108.308C268.813 108.308 268.189 107.68 268.189 106.906C268.189 106.132 268.813 105.504 269.582 105.504C270.352 105.504 270.976 106.132 270.976 106.906C270.976 107.68 270.352 108.308 269.582 108.308Z" fill="#F39892"/>
<path d="M258.435 112.514H236.14C233.835 112.514 231.867 114.4 231.867 116.719V125.131C231.867 127.45 233.835 129.337 236.14 129.337H237.533V133.636C237.533 134.203 237.872 134.715 238.393 134.931C238.566 135.004 238.747 135.038 238.927 135.038C239.289 135.038 239.645 134.896 239.912 134.627L245.077 129.337H258.435C260.74 129.337 262.615 127.45 262.615 125.131V116.719C262.615 114.4 260.74 112.514 258.435 112.514ZM241.714 122.327C240.944 122.327 240.32 121.7 240.32 120.925C240.32 120.151 240.944 119.523 241.714 119.523C242.483 119.523 243.107 120.151 243.107 120.925C243.107 121.7 242.483 122.327 241.714 122.327ZM247.287 122.327C246.518 122.327 245.894 121.7 245.894 120.925C245.894 120.151 246.518 119.523 247.287 119.523C248.057 119.523 248.681 120.151 248.681 120.925C248.681 121.7 248.057 122.327 247.287 122.327ZM252.861 122.327C252.092 122.327 251.468 121.7 251.468 120.925C251.468 120.151 252.092 119.523 252.861 119.523C253.631 119.523 254.254 120.151 254.254 120.925C254.254 121.7 253.631 122.327 252.861 122.327Z" fill="#F39892"/>
</g>
<defs>
<clipPath id="clip0">
<rect width="44.5898" height="44.8619" fill="white" transform="translate(69.8574 45.3145)"/>
</clipPath>
<clipPath id="clip1">
<rect width="23.0381" height="23.1786" fill="white" transform="translate(16.3496 111.112)"/>
</clipPath>
<clipPath id="clip2">
<rect width="47.5624" height="47.8527" fill="white" transform="translate(231.867 87.1855)"/>
</clipPath>
</defs>
</svg>
